<svg xmlns="http://www.w3.org/2000/svg" viewBox="0 0 1725.02 374.62"><g id="Capa_2" data-name="Capa 2"><g id="Capa_1-2" data-name="Capa 1"><path d="M34.88,251.05c48.42,10.65,83.83,36.75,107.86,79.22a15.63,15.63,0,0,1,1.82,5.21l2,16.32a6.61,6.61,0,0,0,2.78,4.69h0c10.72,7.08,24.45,13.3,36.57,17.64,4.72,1.69,9.79-1.41,15.1-3.49,7.38-2.89,14.31-7,21.23-10.93,2.67-1.52,6.15-3.45,7.26-5.87a11,11,0,0,0,1-3,36.58,36.58,0,0,0,.65-5l.38-9.29a15.77,15.77,0,0,1,1.94-7c17.78-31.6,42.32-54,74.09-67.8l.18-.17.7-.22a194.18,194.18,0,0,1,41.18-12.29h0a74.62,74.62,0,0,1,15.4-1.79c.29,0,4.07,0,4.9-.53,11.63-.66,7.38-14,2.64-23-11-21-22.81-11.26-33.6-32.35a29.9,29.9,0,0,1-2.57-16.31c2.93-23.9,8.35-47.61,9.69-71.57A204.4,204.4,0,0,0,329.52,9.45a15.66,15.66,0,0,0-20.64-8c-.4.17-.79.36-1.18.57-29.9,16.09-57.35,34.91-79.06,60.79-18.24,21.74-62.89,21.93-81.14.33C125.61,37.19,98.11,18.16,67.83,1.86A15.44,15.44,0,0,0,46.91,8.1a15.06,15.06,0,0,0-.7,1.46l-.06.15c-21.93,53.68-21,108.34-7.52,163.75,1.4,5.77.2,13.33-2.5,18.72C25.35,213.79,12.86,204.25,2.5,226c-2.43,5.1-4.08,13.68-.14,18,6,6.6,19.18,4.06,32.5,7"/><path d="M548.47,196.93c6.68,6.17,8.4,13.63,8.4,20.38,0,18.5-12.08,31.27-31.31,31.27-8.2,0-21.74-2.34-28.31-9.13-1.25-5.16-.62-15.82,1.93-23.32h1.47c-1.68,17.23,9.22,28.26,24.11,27.44,12.21-.68,22.41-9,22.41-22.41a20.39,20.39,0,0,0-6.57-15.58l-32-29.75a28,28,0,0,1-9.08-20.73c0-14.09,10.32-28.25,29.39-28.25a73.54,73.54,0,0,1,14.34,1.71h6.63v20.52h-1.61c0-10.7-8.39-17.22-18.81-17.22-12.32,0-20.57,9-20.57,19.23a21,21,0,0,0,6.73,15.42Z"/><path d="M658.9,129c7.23,0,17-1.72,20.13-3v21h-1.68v-3a10,10,0,0,0-9.53-10h-31.7V234.19a10.73,10.73,0,0,0,10.71,10.38H649v1.67H612.37v-1.67h2.15a10.69,10.69,0,0,0,10.69-10.25V134H593.52A10,10,0,0,0,584,144v3h-1.68V126c3.13,1.32,12.91,3,20.13,3Z"/><path d="M774.19,246.24H704.86v-1.67H707a10.71,10.71,0,0,0,10.71-10.51V140.42A10.72,10.72,0,0,0,707,130.84h-2.12v-1.66h48.87c7.21-.07,16.83-1.73,19.93-3v21.11H772v-3a10,10,0,0,0-9.36-10H728.58V186h28.26a8.23,8.23,0,0,0,8.08-8.24v-2.43h1.64v26.47h-1.64v-2.46a8.23,8.23,0,0,0-7.91-8.24H728.58v50.1h24c17.72,0,24.52-9.17,29.68-21.9h1.67Z"/><path d="M929.28,129.16v1.69h-1.47c-5.09,0-11.25,3-14.65,10.36L873,231.32s-6.19,13.55-6.19,17.22h-1.51l-47-107.22c-3.38-7.45-9.57-10.49-14.76-10.49h-1.34v-1.69h37.65v1.67h-1.47c-4.32,0-8.75,3.75-6.32,10.43l35,87.6,36.42-87.52c2.44-6.69-2-10.45-6.36-10.45h-1.47V129.2Z"/><path d="M1019.52,246.24H950.2v-1.67h2.12A10.7,10.7,0,0,0,963,234.06V140.42a10.72,10.72,0,0,0-10.65-9.58h-2.12v-1.66h48.87c7.21-.07,16.83-1.73,19.93-3v21.11h-1.69v-3a10,10,0,0,0-9.36-10H973.92V186h28.26a8.23,8.23,0,0,0,8.08-8.24v-2.43h1.64v26.47h-1.64v-2.46a8.23,8.23,0,0,0-7.91-8.24H973.92v50.1h24c17.72,0,24.52-9.17,29.68-21.9h1.67Z"/><path d="M1180.64,129.18v1.68h-3.12a10.33,10.33,0,0,0-10.32,10v86.39a170.91,170.91,0,0,0,1.52,21.33h-1.51L1076,151.32v83.26a10.33,10.33,0,0,0,10.32,10h3.09v1.67H1055v-1.67h3.09a10.31,10.31,0,0,0,10.32-10.13V147.57a144.65,144.65,0,0,0-1.54-20.89h1.67l91.06,97.24V141a10.33,10.33,0,0,0-10.32-10.13h-3.09v-1.67Z"/><path d="M1262.15,196.93c6.68,6.17,8.4,13.63,8.4,20.38,0,18.5-12.08,31.27-31.31,31.27-8.2,0-21.74-2.34-28.31-9.13-1.25-5.16-.61-15.82,1.93-23.32h1.47c-1.68,17.23,9.23,28.26,24.11,27.44,12.21-.68,22.41-9,22.41-22.41a20.39,20.39,0,0,0-6.57-15.58l-32-29.75a28.06,28.06,0,0,1-9.06-20.72c0-14.09,10.32-28.25,29.39-28.25a73.35,73.35,0,0,1,14.33,1.71h6.58v20.52h-1.61c0-10.7-8.39-17.22-18.81-17.22-12.32,0-20.57,9-20.57,19.23a21,21,0,0,0,6.73,15.42Z"/><path d="M1465.74,197.43l-2,26.24c-8.81,14.41-23.77,24.91-47,24.91-35-.17-59.72-24.08-59.72-61,0-36.28,23.91-60.69,60.7-60.69,16.38,0,29.76,4.85,39.55,11.29l3.37,23.62h-1.39c-5.08-19.52-21.46-29.89-41.56-29.9-29.39,0-48.12,22.23-48.12,55.51,0,33.61,19.06,55.52,47.18,56.2,23.74-.07,43.83-11.89,47.64-46.14Z"/><path d="M1618.52,187.71c0,36.52-24.54,60.87-60.1,60.87s-60.1-24.34-60.1-60.87,24.54-60.86,60.1-60.86,60.1,24.34,60.1,60.86m-12.82,0c0-33.52-18.92-55.86-47.28-55.86s-47.28,22.34-47.28,55.86,18.91,55.86,47.28,55.86,47.28-22.34,47.28-55.86"/><path d="M1725,219.23l-9.74,27H1646v-1.67h2.12a10.7,10.7,0,0,0,10.71-10.51V141.38a10.72,10.72,0,0,0-10.71-10.52H1646v-1.67h36.56v1.67h-2.11a10.72,10.72,0,0,0-10.71,10.52v99.74h24c17.72,0,24.52-9.17,29.69-21.9Z"/><polygon points="817.44 338.05 797.89 338.05 797.89 356.14 820.5 356.14 820.5 359.16 794.3 359.16 794.3 315.57 820.35 315.57 820.35 318.62 797.89 318.62 797.89 335 817.44 335 817.44 338.05"/><path d="M846.66,350.87a5.17,5.17,0,0,0-1.87-4q-1.86-1.69-6.75-2.77-5.74-1.2-8.55-3.28a6.88,6.88,0,0,1-2.8-5.82,7.89,7.89,0,0,1,3.13-6.29,12.67,12.67,0,0,1,8.28-2.58,13,13,0,0,1,8.66,2.74,8.09,8.09,0,0,1,3.08,6.75l-.06.19h-3.32a6,6,0,0,0-2.29-4.64,9,9,0,0,0-6.07-2q-3.89,0-5.87,1.71a5.14,5.14,0,0,0-2,4,4.68,4.68,0,0,0,1.7,3.67q1.7,1.45,6.75,2.56a21.87,21.87,0,0,1,8.61,3.5,7.24,7.24,0,0,1,2.92,6.05,7.9,7.9,0,0,1-3.28,6.57,13.81,13.81,0,0,1-8.67,2.53q-5.88,0-9.26-2.82a8,8,0,0,1-3.19-6.71l.06-.17h3.3a5.94,5.94,0,0,0,2.86,5.08,12,12,0,0,0,6.24,1.59A9.77,9.77,0,0,0,844.4,355a5.1,5.1,0,0,0,2.25-4.17"/><path d="M864.09,318.48v8.29h7.12v2.93h-7.12v21.11c0,2.11.39,3.61,1.15,4.5a3.84,3.84,0,0,0,3.07,1.33,10.86,10.86,0,0,0,1.28-.08c.41-.05.89-.13,1.45-.25l.53,2.66a6.88,6.88,0,0,1-1.78.58,10,10,0,0,1-2.11.23,6.71,6.71,0,0,1-5.32-2.15q-1.9-2.16-1.9-6.82V329.7h-5.6v-2.93h5.6v-8.29Z"/><path d="M899.42,353.89a11,11,0,0,1-4.17,4.37,12,12,0,0,1-6.22,1.53,9.93,9.93,0,0,1-8-3.47q-2.89-3.48-2.9-10.78V326.77h3.6V345.6c0,3.95.67,6.79,2,8.5a6.88,6.88,0,0,0,5.74,2.58,10.48,10.48,0,0,0,6.45-1.81,9.54,9.54,0,0,0,3.4-5v-23.1h3.59v32.39h-3.19ZM895,313.65h4.4l.09.18L892,321.62h-3.2Z"/><path d="M938.43,343.87q0,7.26-3.3,11.6a10.74,10.74,0,0,1-9.07,4.33,13.15,13.15,0,0,1-5.94-1.29,11,11,0,0,1-4.18-3.65v16.76h-3.59V326.77h2.75l.66,5.06a11.74,11.74,0,0,1,4.19-4.18,12,12,0,0,1,6-1.48,10.54,10.54,0,0,1,9.13,4.65q3.3,4.67,3.3,12.41Zm-3.6-.63a18.46,18.46,0,0,0-2.46-10.06,8,8,0,0,0-7.18-3.89,9.46,9.46,0,0,0-5.82,1.71,10.9,10.9,0,0,0-3.43,4.43v15.69a10,10,0,0,0,3.57,4.15,10.24,10.24,0,0,0,5.75,1.51,8.12,8.12,0,0,0,7.14-3.53q2.45-3.54,2.44-9.37Z"/><path d="M950.52,317.49H947v-5h3.56Zm0,41.67H947V326.77h3.56Z"/><path d="M959,343.24q0-7.75,3.28-12.41a10.58,10.58,0,0,1,9.14-4.65,11.24,11.24,0,0,1,10,5.39v-19.1H985v46.7h-2.93l-.51-4.7a11.1,11.1,0,0,1-4.19,4,12.37,12.37,0,0,1-6,1.38,10.77,10.77,0,0,1-9.09-4.33q-3.27-4.33-3.28-11.6Zm3.59.63c0,3.91.79,7,2.35,9.34a8,8,0,0,0,7.08,3.47,9.62,9.62,0,0,0,9.37-5.81V335.51a11.41,11.41,0,0,0-3.47-4.49,9.32,9.32,0,0,0-5.83-1.73,7.82,7.82,0,0,0-7.11,3.88,19.07,19.07,0,0,0-2.39,10.08Z"/><path d="M992.52,342.48a17.45,17.45,0,0,1,3.93-11.74,14.11,14.11,0,0,1,19.94-.87c.3.28.6.57.87.87a17.39,17.39,0,0,1,3.92,11.74v1q0,7.18-3.91,11.75a14.15,14.15,0,0,1-20,.83c-.29-.27-.56-.54-.83-.83q-3.91-4.58-3.93-11.75Zm3.59,1a15.44,15.44,0,0,0,2.85,9.46,10,10,0,0,0,15.79,0,15.32,15.32,0,0,0,2.86-9.46v-1a15.22,15.22,0,0,0-2.87-9.4,10,10,0,0,0-15.78,0,15.42,15.42,0,0,0-2.85,9.4Z"/><path d="M1055.42,356.77a9.69,9.69,0,0,0,6.09-2,6.69,6.69,0,0,0,2.65-5.66h3.2l.06.19a9,9,0,0,1-3.53,7.51,12.91,12.91,0,0,1-8.48,3,12.15,12.15,0,0,1-10.08-4.55q-3.6-4.56-3.6-11.65v-1.29a18.23,18.23,0,0,1,3.59-11.62,12.1,12.1,0,0,1,10.06-4.55,12.46,12.46,0,0,1,8.68,3.14,10.25,10.25,0,0,1,3.35,8.26l-.06.19h-3.2a8,8,0,0,0-2.54-6.22,8.9,8.9,0,0,0-6.23-2.32,8.48,8.48,0,0,0-7.58,3.75,16.64,16.64,0,0,0-2.48,9.37v1.26a16.77,16.77,0,0,0,2.48,9.44q2.49,3.74,7.6,3.73"/><path d="M1073.11,342.48a17.45,17.45,0,0,1,3.93-11.74,14.11,14.11,0,0,1,19.94-.87c.3.28.6.57.87.87a17.39,17.39,0,0,1,3.92,11.74v1q0,7.18-3.91,11.75a14.15,14.15,0,0,1-20,.83c-.29-.27-.56-.54-.83-.83q-3.91-4.58-3.93-11.75Zm3.6,1a15.53,15.53,0,0,0,2.85,9.46,10,10,0,0,0,15.79,0,15.32,15.32,0,0,0,2.86-9.46v-1a15.22,15.22,0,0,0-2.87-9.4,10,10,0,0,0-15.78,0,15.42,15.42,0,0,0-2.85,9.4Z"/><path d="M1112.3,326.77l.33,5.33a11.14,11.14,0,0,1,10.3-5.93,10.33,10.33,0,0,1,6.2,1.78,9.87,9.87,0,0,1,3.57,5.43,12.4,12.4,0,0,1,4.17-5.3,11.07,11.07,0,0,1,6.54-1.92,9.8,9.8,0,0,1,8,3.45q2.82,3.43,2.83,10.66v18.89h-3.59v-19q0-6-2.13-8.45a7.33,7.33,0,0,0-5.87-2.47,8.11,8.11,0,0,0-6.35,2.5,12.23,12.23,0,0,0-2.85,6.46v20.92h-3.62v-19c0-3.9-.71-6.71-2.14-8.4a7.31,7.31,0,0,0-5.89-2.53,9,9,0,0,0-6,1.9,10.16,10.16,0,0,0-3.13,5.14v22.84h-3.59v-32.3Z"/><path d="M1161.58,342.48a17.45,17.45,0,0,1,3.93-11.74,14.11,14.11,0,0,1,19.94-.87c.3.28.6.57.87.87a17.39,17.39,0,0,1,3.92,11.74v1q0,7.18-3.91,11.75a14.15,14.15,0,0,1-20,.83c-.29-.27-.56-.54-.83-.83q-3.91-4.58-3.93-11.75Zm3.6,1a15.44,15.44,0,0,0,2.85,9.46,10,10,0,0,0,15.79,0,15.32,15.32,0,0,0,2.86-9.46v-1a15.22,15.22,0,0,0-2.87-9.4,10,10,0,0,0-15.78,0,15.42,15.42,0,0,0-2.85,9.4Z"/><path d="M1233.82,353.89a11.05,11.05,0,0,1-4.18,4.37,12,12,0,0,1-6.22,1.53,9.92,9.92,0,0,1-8-3.47q-2.89-3.48-2.9-10.78V326.77h3.59V345.6c0,3.95.67,6.79,2,8.5a6.84,6.84,0,0,0,5.73,2.58,10.48,10.48,0,0,0,6.45-1.81,9.5,9.5,0,0,0,3.4-5v-23.1h3.6v32.39h-3.18Z"/><path d="M1249.93,326.77l.33,5.63a11.9,11.9,0,0,1,4.22-4.6,11.71,11.71,0,0,1,6.26-1.63c3.52,0,6.18,1.07,8,3.22s2.74,5.48,2.75,10v19.73h-3.59v-19.7c0-3.71-.69-6.34-2.09-7.88a7.55,7.55,0,0,0-5.91-2.3,9.57,9.57,0,0,0-6.19,1.89,10.47,10.47,0,0,0-3.4,5.06v22.93h-3.6V326.77Z"/><polygon points="1298.19 356.14 1319.24 356.14 1319.24 359.16 1293.76 359.16 1293.76 356.53 1313.28 329.85 1294.36 329.85 1294.36 326.77 1317.81 326.77 1317.81 329.43 1298.19 356.14"/><path d="M1323.3,342.48a17.49,17.49,0,0,1,3.92-11.74,14.11,14.11,0,0,1,19.94-.87c.3.28.6.57.87.87a17.39,17.39,0,0,1,3.92,11.74v1q0,7.18-3.91,11.75a14.15,14.15,0,0,1-20,.83c-.29-.27-.56-.54-.83-.83q-3.92-4.58-3.92-11.75Zm3.59,1a15.53,15.53,0,0,0,2.85,9.46,10.06,10.06,0,0,0,14.12,1.68,10.21,10.21,0,0,0,1.67-1.68,15.32,15.32,0,0,0,2.86-9.46v-1a15.22,15.22,0,0,0-2.87-9.4,10,10,0,0,0-15.78,0,15.42,15.42,0,0,0-2.85,9.4Z"/><path d="M1374.23,329.85l-2.55-.18a8.14,8.14,0,0,0-5.55,1.9,10.56,10.56,0,0,0-3.1,5.22v22.36h-3.59V326.77h3.14l.45,5.39v.36a11.69,11.69,0,0,1,3.77-4.67,9.53,9.53,0,0,1,5.63-1.68,7.48,7.48,0,0,1,1.26.1,8.08,8.08,0,0,1,1,.23Z"/><path d="M1395.16,329.85l-2.55-.18a8.14,8.14,0,0,0-5.55,1.9,10.56,10.56,0,0,0-3.1,5.22v22.36h-3.59V326.77h3.15l.45,5.39v.36a11.69,11.69,0,0,1,3.77-4.67,9.53,9.53,0,0,1,5.63-1.68,7.48,7.48,0,0,1,1.26.1,8.08,8.08,0,0,1,1,.23Z"/><path d="M1398.69,342.48a17.45,17.45,0,0,1,3.93-11.74,14.11,14.11,0,0,1,19.94-.87c.3.28.6.57.87.87a17.39,17.39,0,0,1,3.92,11.74v1q0,7.18-3.91,11.75a14.15,14.15,0,0,1-20,.83c-.29-.27-.56-.54-.83-.83q-3.91-4.58-3.93-11.75Zm3.6,1a15.44,15.44,0,0,0,2.85,9.46,10,10,0,0,0,15.79,0,15.32,15.32,0,0,0,2.86-9.46v-1a15.22,15.22,0,0,0-2.87-9.4,10,10,0,0,0-15.78,0,15.42,15.42,0,0,0-2.85,9.4Z"/><path d="M766.52,325.24l3.3-11.58H773v17.59h-6.46Zm10.7,0,3.3-11.58h3.16v17.59h-6.43Z"/><path d="M1440.52,320l-3.3,11.29h-3.17V313.66h6.47Zm11,0-3.3,11.29h-3.16V313.66h6.46Z"/></g></g></svg>