<svg id="Capa_1" data-name="Capa 1" xmlns="http://www.w3.org/2000/svg" viewBox="0 0 1018.99 232.07"><title>logo1</title><path d="M35.16,151.26q8.94,0,8.94,7.29,0,5.46-8.28,8.27Q21.58,172,21.59,185.2q0,10.59,8.27,16.55,7.13,5,18,5,21.84,0,38.23-12.74,10.26-8.11,10.27-20.53a31.05,31.05,0,0,0-3-13.73,153,153,0,0,0-9.6-15.9q-9.94-14.9-16.72-27.14Q59.49,103.1,59.49,90q0-31,30.63-57.94A145.12,145.12,0,0,1,125.87,9.24q16.22-7.11,31.28-7.12a26.75,26.75,0,0,1,16.56,5.13A19.71,19.71,0,0,1,182,24q0,16.56-17.87,35.76a140.52,140.52,0,0,1-39.4,29.46q-11.26,5.63-17,5.63a9.13,9.13,0,0,1-6.79-3.15,6.91,6.91,0,0,1-2-4.8q0-6.12,10.92-9.93a113.93,113.93,0,0,0,35.43-20Q165.1,40.37,165.1,28a9.29,9.29,0,0,0-4-7.78,12.19,12.19,0,0,0-7.45-2.32q-11.43,0-28.64,8.77Q101.87,38.38,88.63,56.91,77,73,77,88.2,77,99.29,83.16,111q5.13,9.43,13.08,21.35,7.61,11.43,12.91,21.19,6.12,11.6,6.13,21.68,0,19.55-22.35,34.6-19,12.58-43,12.58-23.67,0-37.08-13.08-10.1-9.93-10.09-22.84,0-14.4,9.6-24.17a37,37,0,0,1,13.74-8.93A25.83,25.83,0,0,1,35.16,151.26Z" transform="translate(-2.72 -2.12)"/><path d="M194.4,108.56A268.58,268.58,0,0,0,174.53,146q-13.07,29.46-13.07,44c0,2.76.58,4.85,1.74,6.29a6.29,6.29,0,0,0,5.21,2.15q8.28,0,20-15.56a200.31,200.31,0,0,0,13.24-19.2q3.15-5.46,6.79-5.46a4.93,4.93,0,0,1,3.64,1.49,4.5,4.5,0,0,1,1.32,3q0,6.13-16.05,27.32-19.22,25.49-35.09,25.49-8.44,0-14.07-7.78-3.48-5-3.48-14.07,0-20,11.59-46.68,2.8-6.61,15.56-31.95a29.3,29.3,0,0,1-6.79,1.16,11.36,11.36,0,0,1-6.13-1.65c-2.42-1.55-3.64-3.48-3.64-5.8q0-4.12,4.8-6.62,1.34-.66,12.25-2.15A86.69,86.69,0,0,0,184,96.8q5.79-10.42,18.87-28.3a161.54,161.54,0,0,1,10.1-12.91q4-4.14,6.95-4.14a6,6,0,0,1,4.3,2.32,6.38,6.38,0,0,1,2,4.3q0,4.31-9.27,17.05a154,154,0,0,0-9.1,13.41q18.36-5,26.31-5,9.1,0,9.11,7.62a6,6,0,0,1-3.15,5.62q-1.65,1-8.6,1.66-2.82-.17-25,6.29C202.4,106,198.37,107.23,194.4,108.56Z" transform="translate(-2.72 -2.12)"/><path d="M229.49,183.38v3a10.82,10.82,0,0,0,1.82,6.3q4.14,6.12,13.57,6.12,20.7,0,47.84-31.78,4.8-5.46,8.11-5.46a4.81,4.81,0,0,1,4.31,4.3q0,6.45-15.9,21.85a119.44,119.44,0,0,1-26.48,19.7Q248.69,215,236.61,215q-12.42,0-19.54-8.61-4.78-6-4.8-16.22,0-28,26.32-54.79,21.36-21.84,37.25-21.85a12.56,12.56,0,0,1,7.78,2.65,11.18,11.18,0,0,1,4.3,9.11q0,8.78-8.11,21.51Q263.09,173.28,229.49,183.38Zm3.64-12.92q11.58-4,18.21-8.93a73.45,73.45,0,0,0,18.37-20.2,13.8,13.8,0,0,0,2.49-7.12c0-2.2-1.05-3.31-3.15-3.31q-4.31,0-12.25,6.46Q242.57,148.77,233.13,170.46Z" transform="translate(-2.72 -2.12)"/><path d="M370.68,170q-10.1,17.37-17.38,25.82-17.71,20.85-29.46,20.86-7.11,0-10.92-7.78a23.11,23.11,0,0,1-2.65-10.76q0-10.94,9.43-31.62,8.44-18,14.24-28.47a81.52,81.52,0,0,0,5.13-9.77,53.76,53.76,0,0,1,3.47-6.78,6.68,6.68,0,0,1,6-3.48,4.56,4.56,0,0,1,3.48,1.66,7,7,0,0,1,1.65,4.63q0,7.46-13.4,33.27-13.41,25.5-13.41,33.77,0,5.3,4.14,5.3,7.11,0,20.19-18.54a163.6,163.6,0,0,0,12.09-21c-.12-2.76-.17-4.86-.17-6.29q0-12.42,4.63-21.52,6-11.76,16.06-11.75,5.79,0,5.79,7,0,11.08-11.58,32.61a28.48,28.48,0,0,0,5.29.66q5.48,0,14.24-6.95,6.94-5.62,9.1-5.63c1.22,0,2.49.72,3.81,2.15a5.79,5.79,0,0,1,1.49,3.64q0,6-8.28,13.41a32.15,32.15,0,0,1-21.85,8.44A27.73,27.73,0,0,1,370.68,170Z" transform="translate(-2.72 -2.12)"/><path d="M416.37,183.38v3a10.82,10.82,0,0,0,1.82,6.3q4.14,6.12,13.57,6.12,20.7,0,47.84-31.78,4.8-5.46,8.11-5.46a4.81,4.81,0,0,1,4.31,4.3q0,6.45-15.89,21.85a119.72,119.72,0,0,1-26.49,19.7Q435.57,215,423.49,215q-12.42,0-19.53-8.61-4.8-6-4.81-16.22,0-28,26.32-54.79,21.36-21.84,37.25-21.85a12.56,12.56,0,0,1,7.78,2.65,11.15,11.15,0,0,1,4.3,9.11q0,8.78-8.11,21.51Q450,173.28,416.37,183.38ZM420,170.46q11.58-4,18.21-8.93a73.45,73.45,0,0,0,18.37-20.2,13.8,13.8,0,0,0,2.49-7.12c0-2.2-1.05-3.31-3.15-3.31q-4.31,0-12.25,6.46Q429.45,148.77,420,170.46Z" transform="translate(-2.72 -2.12)"/><path d="M527.11,158.38c1.43-1.32,2.81-2.65,4.14-4q34.59-33.76,46.34-33.77,6.46,0,6.46,7.12,0,5-5.8,11.75-31.61,36.92-31.61,65.05a33.17,33.17,0,0,0,5,17.38q2.31,3.81,2.31,6a5.22,5.22,0,0,1-2,3.81A6.81,6.81,0,0,1,546.8,234q-6.78,0-11.42-8.61-4.47-8.11-4.47-19.7,0-22.35,16.89-49.49-22.51,14.4-41.88,51Q501,216,495.33,216a6,6,0,0,1-4.64-2,8.09,8.09,0,0,1-2.32-6q0-8.94,20.36-46.85Q519.67,140.67,526,131.4q6.28-9.11,10.76-9.1a5.89,5.89,0,0,1,4.14,2,7.31,7.31,0,0,1,2.31,5.3q0,3.64-4.8,10.43A177.34,177.34,0,0,0,527.11,158.38Z" transform="translate(-2.72 -2.12)"/><path d="M659.69,105.25q10.27,0,15.4,3.64T680.22,120q0,9.77-7.28,18.87-7,8.61-20.86,13.9-7.62,2.82-12.75,2.82-6.95,0-7-6.13a6.83,6.83,0,0,1,4-6.29q1-.5,11.25-2.81a25,25,0,0,0,11.26-5.8q4.47-3.79,4.47-8.27a6.31,6.31,0,0,0-2-5.13c-1.32-1.1-3.31-1.66-6-1.66q-9.6,0-21.19,7.78-13.41,8.78-13.4,20.86,0,8.61,8.77,21.52,9.76,14.07,9.76,23.83,0,14.57-12.91,22.85a32.51,32.51,0,0,1-18,5.13q-15.89,0-24.17-11.42a32.2,32.2,0,0,1-5.79-19.21q0-12.9,6.62-21.68,4.31-5.79,8.94-5.79,4.14,0,4.14,3.31a9.41,9.41,0,0,1-1.49,4,34.94,34.94,0,0,0-3.81,16.72,18.4,18.4,0,0,0,5.8,13.74,16.39,16.39,0,0,0,11.75,5q6.45,0,10.09-4.3a14.15,14.15,0,0,0,3-9.27q0-7-7.94-18-10.92-15.23-10.93-27.65,0-16.54,18-29.29Q640.16,105.25,659.69,105.25Z" transform="translate(-2.72 -2.12)"/><path d="M819.1,2.29q11.08,0,17,7.94A24.38,24.38,0,0,1,841,25.46Q841,41.53,830.19,62a133.36,133.36,0,0,1-23.51,31.79q-9.27,9.11-14.56,9.1-3.48,0-6.46-3.48a8.36,8.36,0,0,1-2.15-5.62q0-5.81,10.1-13.25a95.3,95.3,0,0,0,22.67-23.17Q828.7,39.2,828.7,26.62q0-5.13-2.24-7.61t-6.7-2.49q-9.1,0-25.82,13.25-19,14.9-40.23,40.55-27,32.61-41.05,64.22-14.56,32.78-14.56,56a28.57,28.57,0,0,0,6.45,18.87q7.13,8.77,17.38,8.78,17.88,0,45-27.81,8.1-8.45,19.69-24.5,7.62-10.26,9.77-14.57c1.66-3.2,3.58-4.8,5.79-4.8q3.64,0,3.64,3.48,0,7.44-18.53,33.44-15.41,21.68-33.94,35.42Q732.53,234.19,714,234.19q-19.37,0-30-17.38a47.46,47.46,0,0,1-6.79-25.32q0-35.76,33.77-90.22,28.8-46.33,60.75-74.65Q799.39,2.29,819.1,2.29Z" transform="translate(-2.72 -2.12)"/><path d="M875.54,108.39q13.58,0,13.58,16.55,0,22-20.37,55.79-22.17,36.59-42.87,36.58-9.58,0-14.07-8.94a23.17,23.17,0,0,1-2.31-10.76q0-21.18,14.56-46,13.58-23,32-35.75Q866.76,108.39,875.54,108.39ZM858.33,171c-2.76-2.21-4.14-3.91-4.14-5.13q0-1.32,5.3-7.28,14.89-16.73,14.89-27a5,5,0,0,0-.82-2.65,4.4,4.4,0,0,0-4.14-2.49q-5.31,0-15.56,10.27-13.25,13.25-20.2,27.31-8.1,16.05-8.11,26.65a8.5,8.5,0,0,0,1.49,5,6.5,6.5,0,0,0,5.46,3q7.95,0,17-11.91A51.25,51.25,0,0,0,856,176.42Q858.5,171.13,858.33,171Z" transform="translate(-2.72 -2.12)"/><path d="M917.42,160.2q-5,12.92-7.45,20.86t-2.48,11.09q0,4.14,4,4.14,6,0,15.39-11.26,4.47-5.46,13.25-19.7,3.48-5.62,7.28-5.62,4.3,0,4.3,4.13,0,7.13-16.38,28.81-17.06,22.68-31.62,22.67A12.28,12.28,0,0,1,893.42,210a15.15,15.15,0,0,1-2.82-9.27q0-9.27,5.63-25.66A405.18,405.18,0,0,1,913,135.21q28.47-59.76,58.1-98.49Q994.72,5.59,1010.28,5.6a10,10,0,0,1,8.11,3.81,13,13,0,0,1,3.31,8.77q0,23.18-41.38,77.13a399.17,399.17,0,0,1-44.36,48Q929.17,149.6,917.42,160.2Zm11.75-26.32q34.43-29.46,61.58-74.48,14.07-23.34,14.07-31c0-2.42-1.05-3.64-3.15-3.64q-9.1,0-33.1,36.25Q948.71,90.84,929.17,133.88Z" transform="translate(-2.72 -2.12)"/></svg>